<svg width="24" height="24" viewBox="0 0 24 24" fill="none" xmlns="http://www.w3.org/2000/svg">
<path d="M5.88889 9.4C5.55752 9.4 5.28889 9.66863 5.28889 10C5.28889 10.3314 5.55752 10.6 5.88889 10.6V9.4ZM15.8889 22.6C16.2203 22.6 16.4889 22.3314 16.4889 22C16.4889 21.6686 16.2203 21.4 15.8889 21.4V22.6ZM2 4L2.6 4L2 4ZM17.5556 17.5L18.1556 17.5L17.5556 17.5ZM3.02277 17.0648L2.58466 16.6548L3.02277 17.0648ZM14.9175 14.3305L15.4438 14.6186L14.9175 14.3305ZM20.1508 21.507L19.6653 21.1545L20.1508 21.507ZM19.4048 21.507L19.8903 21.1545L19.4048 21.507ZM14.9175 11.6695L14.3912 11.9577L14.9175 11.6695ZM5.88889 10.6H11.5751V9.4H5.88889V10.6ZM14.3912 11.9577C14.6122 12.3613 14.7333 12.7224 14.7333 13H15.9333C15.9333 12.4236 15.7003 11.8499 15.4438 11.3814L14.3912 11.9577ZM14.7333 13C14.7333 13.2776 14.6122 13.6387 14.3912 14.0423L15.4438 14.6186C15.7003 14.1501 15.9333 13.5764 15.9333 13H14.7333ZM11.5751 15.4H5.82836V16.6H11.5751V15.4ZM2.58466 16.6548C2.30388 16.9549 2.01557 17.3094 1.79461 17.6934C1.57628 18.0728 1.4 18.522 1.4 19H2.6C2.6 18.8114 2.67281 18.5732 2.83471 18.2919C2.99399 18.0151 3.21706 17.7353 3.46088 17.4747L2.58466 16.6548ZM1.4 19C1.4 19.478 1.57628 19.9272 1.79461 20.3066C2.01557 20.6906 2.30388 21.0451 2.58466 21.3452L3.46088 20.5253C3.21706 20.2647 2.99399 19.9849 2.83471 19.7081C2.67281 19.4268 2.6 19.1886 2.6 19H1.4ZM5.82836 22.6H15.8889V21.4H5.82836V22.6ZM5.08076 8.35956C5.40572 7.912 5.88655 7.20701 6.28864 6.43964C6.67961 5.69351 7.04444 4.80002 7.04444 4H5.84444C5.84444 4.49205 5.60113 5.16624 5.22572 5.88268C4.86144 6.57789 4.41766 7.23039 4.10972 7.65452L5.08076 8.35956ZM7.04444 4C7.04444 3.59868 6.8493 2.96995 6.42831 2.43951C5.98325 1.87873 5.26289 1.4 4.22222 1.4V2.6C4.84822 2.6 5.23898 2.87127 5.48836 3.18549C5.76182 3.53005 5.84444 3.90132 5.84444 4H7.04444ZM4.22222 1.4C3.18155 1.4 2.4612 1.87873 2.01614 2.43951C1.59515 2.96995 1.4 3.59868 1.4 4L2.6 4C2.6 3.90132 2.68263 3.53005 2.95608 3.18549C3.20547 2.87127 3.59623 2.6 4.22222 2.6V1.4ZM1.4 4C1.4 4.80002 1.76483 5.69351 2.1558 6.43964C2.55789 7.20701 3.03872 7.912 3.36369 8.35957L4.33473 7.65452C4.02678 7.23039 3.583 6.57789 3.21872 5.88269C2.84331 5.16624 2.6 4.49205 2.6 4L1.4 4ZM20.6363 21.8596C20.9613 21.412 21.4421 20.707 21.8442 19.9396C22.2352 19.1935 22.6 18.3 22.6 17.5H21.4C21.4 17.9921 21.1567 18.6662 20.7813 19.3827C20.417 20.0779 19.9732 20.7304 19.6653 21.1545L20.6363 21.8596ZM22.6 17.5C22.6 17.0987 22.4049 16.47 21.9839 15.9395C21.5388 15.3787 20.8184 14.9 19.7778 14.9V16.1C20.4038 16.1 20.7945 16.3713 21.0439 16.6855C21.3174 17.03 21.4 17.4013 21.4 17.5H22.6ZM19.7778 14.9C18.7371 14.9 18.0168 15.3787 17.5717 15.9395C17.1507 16.47 16.9556 17.0987 16.9556 17.5L18.1556 17.5C18.1556 17.4013 18.2382 17.03 18.5116 16.6855C18.761 16.3713 19.1518 16.1 19.7778 16.1V14.9ZM16.9556 17.5C16.9556 18.3 17.3204 19.1935 17.7114 19.9396C18.1135 20.707 18.5943 21.412 18.9192 21.8596L19.8903 21.1545C19.5823 20.7304 19.1386 20.0779 18.7743 19.3827C18.3989 18.6662 18.1556 17.9921 18.1556 17.5L16.9556 17.5ZM5.82836 15.4C4.68212 15.4 3.44925 15.7309 2.58466 16.6548L3.46088 17.4747C4.02357 16.8734 4.88564 16.6 5.82836 16.6V15.4ZM4.10972 7.65452C4.13182 7.62408 4.17467 7.60044 4.22222 7.60044C4.26977 7.60044 4.31262 7.62408 4.33473 7.65452L3.36369 8.35957C3.7905 8.9474 4.65395 8.9474 5.08076 8.35956L4.10972 7.65452ZM14.3912 14.0423C13.896 14.9469 12.7986 15.4 11.5751 15.4V16.6C13.028 16.6 14.6537 16.0617 15.4438 14.6186L14.3912 14.0423ZM2.58466 21.3452C3.44925 22.2691 4.68213 22.6 5.82836 22.6V21.4C4.88564 21.4 4.02357 21.1266 3.46088 20.5253L2.58466 21.3452ZM19.6653 21.1545C19.6874 21.1241 19.7302 21.1004 19.7778 21.1004C19.8253 21.1004 19.8682 21.1241 19.8903 21.1545L18.9192 21.8596C19.3461 22.4474 20.2095 22.4474 20.6363 21.8596L19.6653 21.1545ZM11.5751 10.6C12.7986 10.6 13.896 11.0531 14.3912 11.9577L15.4438 11.3814C14.6537 9.93834 13.028 9.4 11.5751 9.4V10.6Z" fill="white" fill-opacity="0.5"/>
</svg>
