<svg width="17" height="19" viewBox="0 0 17 19" fill="none" xmlns="http://www.w3.org/2000/svg">
<path d="M11.9212 6.30682C11.8473 6.00568 11.7308 5.74148 11.5717 5.5142C11.4126 5.28125 11.2138 5.08523 10.9751 4.92614C10.7422 4.76136 10.4695 4.6392 10.157 4.55966C9.85014 4.47443 9.51207 4.43182 9.14276 4.43182C8.3473 4.43182 7.66832 4.62216 7.10582 5.00284C6.54901 5.38352 6.12287 5.93182 5.82742 6.64773C5.53764 7.36364 5.39276 8.22727 5.39276 9.23864C5.39276 10.2614 5.53196 11.1364 5.81037 11.8636C6.08878 12.5909 6.50355 13.1477 7.05469 13.5341C7.60582 13.9205 8.29048 14.1136 9.10867 14.1136C9.83026 14.1136 10.4297 14.0085 10.907 13.7983C11.3899 13.5881 11.7507 13.2898 11.9893 12.9034C12.228 12.517 12.3473 12.0625 12.3473 11.5398L13.1655 11.625H9.17685V8.25H16.9155V10.6705C16.9155 12.2614 16.5774 13.6222 15.9013 14.7528C15.2308 15.8778 14.3047 16.7415 13.1229 17.3438C11.9467 17.9403 10.5973 18.2386 9.07457 18.2386C7.37571 18.2386 5.88423 17.8778 4.60014 17.1562C3.31605 16.4347 2.31321 15.4062 1.59162 14.071C0.87571 12.7358 0.517756 11.1477 0.517756 9.30682C0.517756 7.86364 0.736506 6.58523 1.17401 5.47159C1.61719 4.35795 2.23082 3.41761 3.01491 2.65057C3.79901 1.87784 4.70526 1.29545 5.73367 0.903408C6.76207 0.505681 7.86435 0.306818 9.04048 0.306818C10.0746 0.306818 11.0348 0.454545 11.9212 0.75C12.8132 1.03977 13.6001 1.45454 14.282 1.99432C14.9695 2.52841 15.5234 3.16193 15.9439 3.89489C16.3643 4.62784 16.62 5.43182 16.7109 6.30682H11.9212Z" fill="#FF0000"/>
</svg>
