<svg width="24" height="24" viewBox="0 0 24 24" fill="none" xmlns="http://www.w3.org/2000/svg">
<path fill-rule="evenodd" clip-rule="evenodd" d="M5.5 3V10.2H14.2V3H5.5ZM6.69995 9V4.20001H13V9H6.69995Z" fill="white" fill-opacity="0.5"/>
<path fill-rule="evenodd" clip-rule="evenodd" d="M5.09998 0C3.66406 0 2.5 1.16406 2.5 2.60001V19.35C2.5 19.4329 2.4328 19.5 2.34998 19.5C1.60437 19.5 1 20.1044 1 20.85V21.6C1 22.4837 1.71631 23.2 2.59998 23.2H17.1C17.9836 23.2 18.7 22.4837 18.7 21.6V21.1C18.7 20.2163 17.9836 19.5 17.1 19.5C16.8791 19.5 16.7 19.3209 16.7 19.1V8.62567C16.9974 8.60504 17.3338 8.61279 17.6432 8.67554C18.146 8.7775 18.4296 8.98605 18.5308 9.28973C18.5581 9.37173 18.5909 9.54437 18.6187 9.82727C18.6452 10.0982 18.6638 10.4324 18.6769 10.8143C18.7001 11.4914 18.7052 12.2909 18.7104 13.1107L18.7125 13.429C18.7188 14.352 18.7281 15.2842 18.7679 16.05C18.7879 16.4326 18.816 16.7849 18.8571 17.0797C18.8954 17.3546 18.9533 17.6483 19.0633 17.8683C19.6884 19.1185 21.5127 19.1162 22.1367 17.8683C22.3054 17.5308 22.4526 16.9162 22.5806 16.2249C22.7141 15.5038 22.841 14.6139 22.9463 13.6663C23.1554 11.7845 23.2841 9.63062 23.2 8.08356V5.71805C23.2 5.112 22.8575 4.55798 22.3155 4.28696L19.8683 3.06335C19.5719 2.91516 19.2115 3.03528 19.0633 3.33167C18.9151 3.62805 19.0353 3.98846 19.3317 4.13666L20.7653 4.85349C20.3641 5.12268 20.1 5.58051 20.1 6.10001C20.1 6.92844 20.7715 7.60001 21.6 7.60001C21.7385 7.60001 21.8726 7.58124 22 7.54608V8.11667L22.0009 8.1333C22.0815 9.58505 21.9604 11.6724 21.7537 13.5338C21.6506 14.4611 21.5275 15.3212 21.4006 16.0064C21.2682 16.7213 21.1445 17.1693 21.0633 17.3317C20.881 17.6962 20.3189 17.6962 20.1367 17.3317L20.1355 17.3292L20.1331 17.3235C20.1308 17.3179 20.1278 17.3099 20.1243 17.2993C20.117 17.2778 20.1085 17.2488 20.0994 17.2112C20.0809 17.1353 20.0627 17.0367 20.0456 16.914C20.0114 16.6683 19.9855 16.3549 19.9664 15.9875C19.9281 15.2533 19.9187 14.348 19.9125 13.421L19.9104 13.1028C19.9052 12.2863 19.9 11.4681 19.8762 10.7732C19.8627 10.3801 19.843 10.0174 19.8129 9.71027C19.784 9.41501 19.7419 9.12827 19.6692 8.91028C19.3704 8.01395 18.5706 7.63919 17.8817 7.49948C17.4814 7.4183 17.0683 7.40344 16.7 7.42343V2.60001C16.7 1.16406 15.5359 0 14.1 0H5.09998ZM3.69995 2.60001C3.69995 1.82681 4.32678 1.20001 5.09998 1.20001H14.1C14.8732 1.20001 15.5 1.82681 15.5 2.60001V19.1C15.5 19.9837 16.2163 20.7 17.1 20.7C17.3209 20.7 17.5 20.8791 17.5 21.1V21.6C17.5 21.8209 17.3209 22 17.1 22H2.59998C2.37909 22 2.19995 21.8209 2.19995 21.6V20.85C2.19995 20.7672 2.26715 20.7 2.34998 20.7C3.09558 20.7 3.69995 20.0956 3.69995 19.35V2.60001Z" fill="white" fill-opacity="0.5"/>
</svg>
